<svg width="100%" height="100%" viewBox="0 0 160 90" fill="none" xmlns="http://www.w3.org/2000/svg" preserveAspectRatio="xMidYMid meet">
  <!-- 菜单布局：水平（缩略图友好：仅保持结构相对关系，强化可读性） -->
  <rect width="160" height="90" rx="10" fill="#F7F8FA"/>

  <!-- 顶部栏（全宽） -->
  <rect x="0" y="0" width="160" height="16" fill="#FFFFFF"/>
  <line x1="0" y1="16" x2="160" y2="16" stroke="#EBEDF0" stroke-width="2" vector-effect="non-scaling-stroke"/>
  <rect x="6" y="4" width="8" height="8" rx="2" fill="#409EFF"/>
  <rect x="16" y="6" width="28" height="4" rx="2" fill="#C9CDD4" fill-opacity="0.85"/>
  <rect x="52" y="5" width="20" height="6" rx="3" fill="#409EFF" fill-opacity="0.12"/>
  <rect x="74" y="5" width="18" height="6" rx="3" fill="#F2F3F5"/>
  <rect x="94" y="5" width="18" height="6" rx="3" fill="#F2F3F5"/>
  <circle cx="154" cy="8" r="2.5" fill="#C9CDD4" fill-opacity="0.6"/>
  <circle cx="147" cy="8" r="2.5" fill="#C9CDD4" fill-opacity="0.6"/>
  <circle cx="140" cy="8" r="2.5" fill="#C9CDD4" fill-opacity="0.6"/>
  <circle cx="132" cy="8" r="3.5" fill="#C9CDD4" fill-opacity="0.45"/>

  <!-- 进程栏（全宽） -->
  <rect x="0" y="16" width="160" height="12" fill="#FFFFFF"/>
  <line x1="0" y1="28" x2="160" y2="28" stroke="#EBEDF0" stroke-width="2" vector-effect="non-scaling-stroke"/>
  <rect x="6" y="19" width="36" height="6" rx="3" fill="#409EFF" fill-opacity="0.12"/>
  <rect x="6" y="24.8" width="36" height="2" rx="1" fill="#409EFF"/>
  <rect x="44" y="19" width="32" height="6" rx="3" fill="#F2F3F5"/>
  <rect x="78" y="19" width="32" height="6" rx="3" fill="#F2F3F5"/>

  <!-- 内容区 -->
  <rect x="0" y="28" width="160" height="62" fill="#F7F8FA"/>
  <rect x="6" y="34" width="46" height="18" rx="4" fill="#FFFFFF" stroke="#EBEDF0" stroke-width="2" vector-effect="non-scaling-stroke"/>
  <rect x="10" y="38" width="22" height="3" rx="1.5" fill="#C9CDD4" fill-opacity="0.75"/>
  <rect x="57" y="34" width="46" height="18" rx="4" fill="#FFFFFF" stroke="#EBEDF0" stroke-width="2" vector-effect="non-scaling-stroke"/>
  <rect x="61" y="38" width="22" height="3" rx="1.5" fill="#C9CDD4" fill-opacity="0.75"/>
  <rect x="108" y="34" width="46" height="18" rx="4" fill="#FFFFFF" stroke="#EBEDF0" stroke-width="2" vector-effect="non-scaling-stroke"/>
  <rect x="112" y="38" width="22" height="3" rx="1.5" fill="#C9CDD4" fill-opacity="0.75"/>

  <rect x="6" y="56" width="148" height="28" rx="4" fill="#FFFFFF" stroke="#EBEDF0" stroke-width="2" vector-effect="non-scaling-stroke"/>
  <path d="M10 78 L26 66 L44 70 L62 62 L80 72 L98 68 L116 74 L134 64 L150 72" stroke="#409EFF" stroke-width="2.5" vector-effect="non-scaling-stroke" stroke-linecap="round" stroke-linejoin="round"/>
</svg>
