<svg width="100%" height="100%" viewBox="0 0 160 90" fill="none" xmlns="http://www.w3.org/2000/svg">
  <!-- Window Frame -->
  <rect x="0" y="0" width="160" height="90" rx="8" fill="#F8FAFC"/>
  <rect x="0.5" y="0.5" width="159" height="89" rx="7.5" stroke="#E2E8F0"/>
  
  <!-- Content Area Shadow -->
  <rect x="65" y="24" width="83" height="54" rx="4" fill="#FFFFFF"/>
  <rect x="65.5" y="24.5" width="82" height="53" rx="3.5" stroke="#E2E8F0"/>

  <!-- Vertical Sidebar -->
  <rect x="12" y="12" width="40" height="66" rx="6" fill="#1E293B"/>
  
  <!-- Sidebar Menu Items -->
  <rect x="20" y="24" width="24" height="6" rx="3" fill="#4F46E5"/>
  <rect x="20" y="36" width="18" height="4" rx="2" fill="#334155"/>
  <rect x="20" y="46" width="22" height="4" rx="2" fill="#334155"/>
  <rect x="20" y="56" width="16" height="4" rx="2" fill="#334155"/>
  <rect x="20" y="66" width="20" height="4" rx="2" fill="#334155"/>

  <!-- Top Header -->
  <rect x="64" y="12" width="84" height="8" rx="4" fill="#E2E8F0"/>

  <!-- Content Elements -->
  <rect x="70" y="32" width="30" height="4" rx="2" fill="#F1F5F9"/>
  <rect x="70" y="42" width="70" height="28" rx="2" fill="#F1F5F9"/>

</svg>
