<svg width="100%" height="100%" viewBox="0 0 160 90" fill="none" xmlns="http://www.w3.org/2000/svg">
  <!-- Window Frame -->
  <rect x="0" y="0" width="160" height="90" rx="8" fill="#F8FAFC"/>
  <rect x="0.5" y="0.5" width="159" height="89" rx="7.5" stroke="#E2E8F0"/>

  <!-- Top Navigation Bar -->
  <rect x="12" y="12" width="136" height="16" rx="6" fill="#1E293B"/>
  
  <!-- Nav Menu Items -->
  <rect x="22" y="17" width="20" height="6" rx="3" fill="#4F46E5"/>
  <rect x="50" y="18" width="16" height="4" rx="2" fill="#334155"/>
  <rect x="74" y="18" width="16" height="4" rx="2" fill="#334155"/>
  <rect x="98" y="18" width="16" height="4" rx="2" fill="#334155"/>

  <!-- Content Area -->
  <rect x="12" y="36" width="136" height="42" rx="4" fill="#FFFFFF"/>
  <rect x="12.5" y="36.5" width="135" height="41.5" rx="3.5" stroke="#E2E8F0"/>
  
  <!-- Content Elements -->
  <rect x="20" y="44" width="30" height="4" rx="2" fill="#F1F5F9"/>
  <rect x="20" y="54" width="60" height="16" rx="2" fill="#F1F5F9"/>
  <rect x="88" y="54" width="50" height="16" rx="2" fill="#F1F5F9"/>

</svg>
