<svg width="100%" height="100%" viewBox="0 0 160 90" fill="none" xmlns="http://www.w3.org/2000/svg">
  <!-- Window Frame -->
  <rect x="0" y="0" width="160" height="90" rx="8" fill="#F8FAFC"/>
  <rect x="0.5" y="0.5" width="159" height="89" rx="7.5" stroke="#E2E8F0"/>

  <!-- Top Header Bar -->
  <rect x="12" y="12" width="136" height="12" rx="6" fill="#1E293B"/>
  
  <!-- Logo/Brand Section in Header -->
  <rect x="20" y="15" width="6" height="6" rx="3" fill="#4F46E5"/>
  <rect x="32" y="16" width="20" height="4" rx="2" fill="#334155"/>

  <!-- Left Sidebar -->
  <rect x="12" y="30" width="30" height="48" rx="4" fill="#FFFFFF"/>
  <rect x="12.5" y="30.5" width="29.5" height="47.5" rx="3.5" stroke="#E2E8F0"/>
  
  <rect x="20" y="38" width="14" height="4" rx="2" fill="#E2E8F0"/>
  <rect x="20" y="48" width="14" height="4" rx="2" fill="#F1F5F9"/>
  <rect x="20" y="58" width="14" height="4" rx="2" fill="#F1F5F9"/>

  <!-- Content Area -->
  <rect x="50" y="30" width="98" height="48" rx="4" fill="#FFFFFF"/>
  <rect x="50.5" y="30.5" width="97.5" height="47.5" rx="3.5" stroke="#E2E8F0"/>
  
  <rect x="58" y="38" width="30" height="4" rx="2" fill="#F1F5F9"/>
  <rect x="58" y="48" width="82" height="22" rx="2" fill="#F1F5F9"/>

</svg>
