<svg width="100%" height="100%" viewBox="0 0 160 90" fill="none" xmlns="http://www.w3.org/2000/svg">
  <!-- Background -->
  <rect width="160" height="90" rx="8" fill="#F3F4F6"/>
  <!-- Card Base -->
  <rect x="6" y="6" width="148" height="78" rx="8" fill="#FFFFFF"/>
  
  <!-- === Layout: Dual (Uniform Spacing) === -->
  
  <!-- Sidebar 1 (Dark Grey #64748B). x=6 to 22. -->
  <path d="M6 14C6 9.58172 9.58172 6 14 6H22V84H14C9.58172 84 6 80.4183 6 76V14Z" fill="#64748B"/>
  <!-- Icons (Aligning with menu items roughly?) -->
  <!-- Menu start y=16. Pitch=12. y=16, 28, 40... -->
  <!-- Let's align icons to these y's centers. y_center = y_rect + 2. -->
  <!-- 16+2=18. 28+2=30. 40+2=42. -->
  <circle cx="14" cy="18" r="2" fill="#E2E8F0"/>
  <circle cx="14" cy="30" r="2" fill="#E2E8F0"/>
  <circle cx="14" cy="42" r="2" fill="#E2E8F0"/>
  
  <!-- Sidebar 2 (Medium Grey #94A3B8). x=22 to 58. -->
  <rect x="22" y="6" width="36" height="78" fill="#94A3B8"/>
  <!-- Menu Items (Uniform 8px Gap) -->
  <!-- Start y=16. Pitch=12. -->
  <rect x="28" y="16" width="24" height="4" rx="2" fill="#F1F5F9"/>
  <rect x="28" y="28" width="24" height="4" rx="2" fill="#E2E8F0"/>
  <rect x="28" y="40" width="24" height="4" rx="2" fill="#E2E8F0"/>
  <rect x="28" y="52" width="24" height="4" rx="2" fill="#E2E8F0"/>
  <rect x="28" y="64" width="16" height="4" rx="2" fill="#E2E8F0"/>

  <!-- Content Area (Light). -->
  <path d="M58 6H146C150.418 6 154 9.58172 154 14V76C154 80.4183 150.418 84 146 84H58V6Z" fill="#F8FAFC"/>
  
  <!-- Content Bars -->
  <rect x="66" y="16" width="80" height="6" rx="3" fill="#FFFFFF"/>
  <rect x="66" y="30" width="80" height="6" rx="3" fill="#FFFFFF"/>
  <rect x="66" y="42" width="50" height="6" rx="3" fill="#FFFFFF"/>
  <rect x="66" y="54" width="70" height="6" rx="3" fill="#FFFFFF"/>
  <rect x="66" y="66" width="40" height="6" rx="3" fill="#FFFFFF"/>

</svg>
