<svg width="100%" height="100%" viewBox="0 0 100 60" fill="none" xmlns="http://www.w3.org/2000/svg" preserveAspectRatio="none">
  <!-- 背景 -->
  <rect width="100" height="60" rx="4" fill="#F7F8FA"/>
  
  <!-- 窗口背景 -->
  <rect x="6.5" y="6.5" width="87" height="47" rx="3.5" fill="white"/>
  
  <!-- 主侧边栏 (深色) -->
  <path d="M9.5 6H20V54H9.5C7.567 54 6 52.433 6 50.5V9.5C6 7.567 7.567 6 9.5 6Z" fill="#272E3B"/>
  
  <!-- 子侧边栏 (最浅灰) -->
  <rect x="20" y="6" width="14" height="48" fill="#F7F8FA"/>
  <rect x="34" y="6" width="1" height="48" fill="#EBEDF0"/>
  
  <!-- 顶栏 (白) -->
  <path d="M34 6H90.5C92.433 6 94 7.567 94 9.5V18H34V6Z" fill="white"/>
  <rect x="35" y="17" width="59" height="1" fill="#EBEDF0"/>
  
  <!-- 细节对齐 -->
  <!-- 主侧栏 Icon -->
  <rect x="11" y="12" width="4" height="4" rx="1" fill="#409EFF"/> <!-- Active -->
  <rect x="11" y="20" width="4" height="4" rx="1" fill="white" fill-opacity="0.3"/>
  <rect x="11" y="28" width="4" height="4" rx="1" fill="white" fill-opacity="0.3"/>
  
  <!-- 子侧栏 List (x=23 center in 14 width rect from 20? 20+1.5=21.5? No. 20+3=23. Width 8. Margin left 3. Looks consistent) -->
  <rect x="23" y="12" width="8" height="3" rx="1" fill="#C9CDD4"/>
  <rect x="23" y="19" width="8" height="3" rx="1" fill="#EBEDF0"/>
  <rect x="23" y="26" width="8" height="3" rx="1" fill="#EBEDF0"/>

  <!-- 窗口描边 -->
  <rect x="6.5" y="6.5" width="87" height="47" rx="3.5" stroke="#DEE0E3" fill="none"/>
</svg>
