<svg width="100%" height="100%" viewBox="0 0 160 90" fill="none" xmlns="http://www.w3.org/2000/svg">
  <!-- Window Frame -->
  <rect x="0" y="0" width="160" height="90" rx="8" fill="#F8FAFC"/>
  <rect x="0.5" y="0.5" width="159" height="89" rx="7.5" stroke="#E2E8F0"/>

  <!-- Primary Sidebar (Narrow) -->
  <rect x="12" y="12" width="16" height="66" rx="6" fill="#1E293B"/>
  
  <!-- Primary Icon Placeholders -->
  <circle cx="20" cy="24" r="3" fill="#4F46E5"/>
  <circle cx="20" cy="36" r="2" fill="#334155"/>
  <circle cx="20" cy="46" r="2" fill="#334155"/>
  <circle cx="20" cy="56" r="2" fill="#334155"/>
  <circle cx="20" cy="66" r="2" fill="#334155"/>

  <!-- Secondary Sidebar (Sub-menu) -->
  <path d="M28 12H50C53.3137 12 56 14.6863 56 18V72C56 75.3137 53.3137 78 50 78H28V12Z" fill="#FFFFFF"/>
  <path d="M56 18V72" stroke="#E2E8F0"/>
  
  <rect x="34" y="24" width="16" height="4" rx="2" fill="#E2E8F0"/>
  <rect x="34" y="34" width="14" height="3" rx="1.5" fill="#F1F5F9"/>
  <rect x="34" y="42" width="14" height="3" rx="1.5" fill="#F1F5F9"/>
  <rect x="34" y="50" width="14" height="3" rx="1.5" fill="#F1F5F9"/>

  <!-- Header -->
  <rect x="64" y="12" width="84" height="8" rx="4" fill="#E2E8F0"/>

  <!-- Content Area -->
  <rect x="64" y="28" width="84" height="50" rx="4" fill="#FFFFFF"/>
  <rect x="64.5" y="28.5" width="83" height="49.5" rx="3.5" stroke="#E2E8F0"/>
  
  <!-- Content Elements -->
  <rect x="72" y="36" width="24" height="4" rx="2" fill="#F1F5F9"/>

</svg>
