<svg width="100%" height="100%" viewBox="0 0 100 60" fill="none" xmlns="http://www.w3.org/2000/svg" preserveAspectRatio="none">
  <!-- 统一预览卡片：菜单布局（水平） -->
  <rect width="100" height="60" rx="4" fill="#F7F8FA"/>

  <!-- 窗口容器 -->
  <rect x="6.5" y="6.5" width="87" height="47" rx="3.5" fill="#FFFFFF"/>

  <!-- 内容区背景 -->
  <rect x="6.5" y="18" width="87" height="36" fill="#F7F8FA"/>

  <!-- 顶栏（水平导航：使用浅色体系，避免误解为“黑色菜单”） -->
  <path d="M9.5 6H90.5C92.433 6 94 7.567 94 9.5V18H6V9.5C6 7.567 7.567 6 9.5 6Z" fill="#FFFFFF"/>
  <rect x="6.5" y="17" width="87" height="1" fill="#EBEDF0"/>

  <!-- 顶栏内容（Logo / 菜单项 / 头像） -->
  <rect x="11" y="10.5" width="5" height="3.5" rx="1.2" fill="#409EFF"/>
  <rect x="20" y="10.5" width="12" height="3.5" rx="1.75" fill="#409EFF" fill-opacity="0.14"/>
  <rect x="35" y="10.5" width="12" height="3.5" rx="1.75" fill="#EBEDF0"/>
  <rect x="50" y="10.5" width="12" height="3.5" rx="1.75" fill="#EBEDF0"/>
  <rect x="65" y="10.5" width="12" height="3.5" rx="1.75" fill="#EBEDF0"/>
  <circle cx="90" cy="12.25" r="2" fill="#C9CDD4"/>

  <!-- 内容卡片（无侧栏，卡片更宽） -->
  <rect x="11" y="22" width="34" height="10" rx="2" fill="#FFFFFF" stroke="#EBEDF0"/>
  <rect x="13" y="24" width="14" height="2" rx="1" fill="#C9CDD4" fill-opacity="0.75"/>
  <rect x="49" y="22" width="34" height="10" rx="2" fill="#FFFFFF" stroke="#EBEDF0"/>
  <rect x="51" y="24" width="14" height="2" rx="1" fill="#C9CDD4" fill-opacity="0.75"/>

  <rect x="11" y="36" width="72" height="14" rx="2" fill="#FFFFFF" stroke="#EBEDF0"/>
  <rect x="13" y="38.5" width="14" height="2" rx="1" fill="#C9CDD4" fill-opacity="0.7"/>
  <path d="M13 47 L22 41 L34 44 L46 39 L58 43 L70 40 L81 43" stroke="#409EFF" stroke-width="1.6" stroke-linecap="round" stroke-linejoin="round"/>

  <!-- 窗口描边 -->
  <rect x="6.5" y="6.5" width="87" height="47" rx="3.5" stroke="#DEE0E3"/>
</svg>
