<svg width="100%" height="100%" viewBox="0 0 100 60" fill="none" xmlns="http://www.w3.org/2000/svg" preserveAspectRatio="none">
  <!-- 背景 -->
  <rect width="100" height="60" rx="4" fill="#F7F8FA"/>
  
  <!-- 窗口背景 -->
  <rect x="6.5" y="6.5" width="87" height="47" rx="3.5" fill="white"/>
  
  <!-- 侧边栏 (极浅灰) -->
  <path d="M9.5 6H28V54H9.5C7.567 54 6 52.433 6 50.5V9.5C6 7.567 7.567 6 9.5 6Z" fill="#F2F3F5"/>
  <rect x="28" y="6" width="1" height="48" fill="#EBEDF0"/>
  
  <!-- 顶栏分隔线 -->
  <rect x="29" y="17" width="65" height="1" fill="#EBEDF0"/>
  
  <!-- 细节对齐 (x=11, width=13) -->
  <rect x="11" y="12" width="13" height="4" rx="1" fill="#C9CDD4"/> <!-- Active -->
  <rect x="11" y="20" width="13" height="4" rx="1" fill="#EBEDF0"/>
  <rect x="11" y="28" width="13" height="4" rx="1" fill="#EBEDF0"/>
  <rect x="11" y="36" width="13" height="4" rx="1" fill="#EBEDF0"/>

  <!-- 窗口描边 -->
  <rect x="6.5" y="6.5" width="87" height="47" rx="3.5" stroke="#DEE0E3" fill="none"/>
</svg>
