<svg width="100%" height="100%" viewBox="0 0 160 90" fill="none" xmlns="http://www.w3.org/2000/svg">
  <!-- Window Background -->
  <rect width="160" height="90" rx="8" fill="#F3F4F6"/>
  <rect x="6" y="6" width="148" height="78" rx="8" fill="#FFFFFF"/>
  
  <!-- Header -->
  <path d="M6 14C6 9.58172 9.58172 6 14 6H146C150.418 6 154 9.58172 154 14V26H6V14Z" fill="#F8FAFC"/>
  <circle cx="20" cy="16" r="3" fill="#D1D5DB"/>
  <circle cx="32" cy="16" r="3" fill="#D1D5DB"/>
  <circle cx="44" cy="16" r="3" fill="#D1D5DB"/>

  <!-- Menu: Transparent (Matches Light style + Active Border) -->
  
  <!-- Sidebar: White. Bars: Grey (#E2E8F0) -->
  
  <!-- Active Item (Item 1): Has BLUE Left Border Line -->
  <!-- Left Border Line: x=6 (Sidebar edge), y=32. w=4, h=4? No, a thin line. -->
  <!-- Let's put a distinct blue line just left of the bar. x=8? -->
  <!-- Sidebar content starts at x=14. -->
  <rect x="8" y="32" width="2" height="4" rx="1" fill="#4F46E5"/> <!-- Active Indicator -->
  <rect x="14" y="32" width="24" height="4" rx="2" fill="#E2E8F0"/> <!-- Active Bar (same color or slightly darker?) User said same as light -->

  <!-- Other Items -->
  <rect x="14" y="40" width="24" height="4" rx="2" fill="#E2E8F0"/>
  <rect x="14" y="48" width="24" height="4" rx="2" fill="#E2E8F0"/>
  <rect x="14" y="56" width="24" height="4" rx="2" fill="#E2E8F0"/>
  <rect x="14" y="64" width="24" height="4" rx="2" fill="#E2E8F0"/>
  <rect x="14" y="72" width="16" height="4" rx="2" fill="#E2E8F0"/>

  <!-- Content: Grey (#F1F5F9). Bars: White -->
  <path d="M46 26H154V76C154 80.4183 150.418 84 146 84H46V26Z" fill="#F1F5F9"/>
  <rect x="54" y="34" width="92" height="6" rx="3" fill="#FFFFFF"/>
  <rect x="54" y="46" width="92" height="6" rx="3" fill="#FFFFFF"/>
  <rect x="54" y="58" width="60" height="6" rx="3" fill="#FFFFFF"/>
  <rect x="54" y="70" width="80" height="6" rx="3" fill="#FFFFFF"/>

</svg>
