<svg width="100%" height="100%" viewBox="0 0 100 60" fill="none" xmlns="http://www.w3.org/2000/svg" preserveAspectRatio="none">
  <!-- 背景 -->
  <rect width="100" height="60" rx="4" fill="#F7F8FA"/>

  <!-- 窗口背景 -->
  <rect x="6.5" y="6.5" width="87" height="47" rx="3.5" fill="white"/>
  
  <!-- 侧边栏 (模拟透明) -->
  <path d="M9.5 6H28V54H9.5C7.567 54 6 52.433 6 50.5V9.5C6 7.567 7.567 6 9.5 6Z" fill="#F7F8FA"/>
  <g fill="#DEE0E3">
      <!-- 稀疏点阵，避免太乱 -->
      <rect x="10" y="8" width="2" height="2"/> <rect x="16" y="8" width="2" height="2"/> <rect x="22" y="8" width="2" height="2"/>
      <rect x="13" y="11" width="2" height="2"/> <rect x="19" y="11" width="2" height="2"/>
      <rect x="10" y="14" width="2" height="2"/> <rect x="16" y="14" width="2" height="2"/> <rect x="22" y="14" width="2" height="2"/>
  </g>
  <rect x="28" y="6" width="1" height="48" fill="#EBEDF0"/>
  
  <!-- 顶栏 (白) -->
  <path d="M28 6H90.5C92.433 6 94 7.567 94 9.5V18H28V6Z" fill="white"/>
  <rect x="28" y="17" width="66" height="1" fill="#EBEDF0"/>
  
  <!-- 细节: x=11, width=13 -->
  <rect x="11" y="18" width="13" height="4" rx="1" fill="#409EFF" fill-opacity="0.8"/> <!-- Active -->
  <rect x="11" y="26" width="13" height="4" rx="1" fill="#C9CDD4"/>
  <rect x="11" y="34" width="13" height="4" rx="1" fill="#C9CDD4"/>

  <!-- 窗口描边 -->
  <rect x="6.5" y="6.5" width="87" height="47" rx="3.5" stroke="#DEE0E3" fill="none"/>
</svg>
