<svg width="100%" height="100%" viewBox="0 0 100 60" fill="none" xmlns="http://www.w3.org/2000/svg" preserveAspectRatio="none">
  <!-- 背景 -->
  <rect width="100" height="60" rx="4" fill="#F7F8FA"/>
  
  <!-- 窗口背景 -->
  <rect x="6.5" y="6.5" width="87" height="47" rx="3.5" fill="white"/>
  
  <!-- 侧边栏 (深色 #272E3B) -->
  <path d="M9.5 6H28V54H9.5C7.567 54 6 52.433 6 50.5V9.5C6 7.567 7.567 6 9.5 6Z" fill="#272E3B"/>
  
  <!-- 顶栏 (白) -->
  <path d="M28 6H90.5C92.433 6 94 7.567 94 9.5V18H28V6Z" fill="white"/>
  <rect x="28" y="17" width="66" height="1" fill="#EBEDF0"/>
  
  <!-- 细节: x=11, width=13 -->
  <rect x="11" y="12" width="13" height="4" rx="1" fill="#409EFF"/> <!-- Active Blue -->
  <rect x="11" y="20" width="13" height="4" rx="1" fill="white" fill-opacity="0.3"/>
  <rect x="11" y="28" width="13" height="4" rx="1" fill="white" fill-opacity="0.3"/>
  <rect x="11" y="36" width="13" height="4" rx="1" fill="white" fill-opacity="0.3"/>

  <!-- 窗口描边 -->
  <rect x="6.5" y="6.5" width="87" height="47" rx="3.5" stroke="#DEE0E3" fill="none"/>
</svg>
