<svg width="100%" height="100%" viewBox="0 0 160 90" fill="none" xmlns="http://www.w3.org/2000/svg">
  <!-- Split Background with Outer Radius 8px -->
  
  <!-- Left Background: 0 to 80. Top-Left(8), Bottom-Left(8) -->
  <path d="M80 0H8C3.58172 0 0 3.58172 0 8V82C0 86.4183 3.58172 90 8 90H80V0Z" fill="#F3F4F6"/>
  
  <!-- Right Background: 80 to 160. Top-Right(8), Bottom-Right(8) -->
  <path d="M80 0H152C156.418 0 160 3.58172 160 8V82C160 86.4183 156.418 90 152 90H80V0Z" fill="#1F2937"/>
  
  <!-- === LEFT SIDE (LIGHT) === -->
  <!-- Card Main: x=6 to 80. Radius 8. -->
  <path d="M80 6H14C9.58172 6 6 9.58172 6 14V76C6 80.4183 9.58172 84 14 84H80V6Z" fill="#FFFFFF"/>
  
  <!-- Header: x=6 to 80. Top-left radius 8. -->
  <path d="M6 14C6 9.58172 9.58172 6 14 6H80V26H6V14Z" fill="#F8FAFC"/>
  
  <!-- Dots (All on left) -->
  <circle cx="20" cy="16" r="3" fill="#D1D5DB"/>
  <circle cx="32" cy="16" r="3" fill="#D1D5DB"/>
  <circle cx="44" cy="16" r="3" fill="#D1D5DB"/>

  <!-- Content Bars Left -->
  <path d="M21 34H80V40H21C19.3431 40 18 38.6569 18 37C18 35.3431 19.3431 34 21 34Z" fill="#E5E7EB"/>
  <path d="M21 46H80V52H21C19.3431 52 18 50.6569 18 49C18 47.3431 19.3431 46 21 46Z" fill="#E5E7EB"/>
  <path d="M21 58H80V64H21C19.3431 64 18 62.6569 18 61C18 59.3431 19.3431 58 21 58Z" fill="#E5E7EB"/>
  <rect x="18" y="70" width="50" height="6" rx="3" fill="#E5E7EB"/>


  <!-- === RIGHT SIDE (DARK) === -->
  <!-- Card Main: x=80 to 154. Radius 8 (Right side). -->
  <path d="M80 6H146C150.418 6 154 9.58172 154 14V76C154 80.4183 150.418 84 146 84H80V6Z" fill="#374151"/>
  
  <!-- Header: x=80 to 154. Top-right radius 8. -->
  <path d="M80 6H146C150.418 6 154 9.58172 154 14V26H80V6Z" fill="#4B5563" fill-opacity="0.5"/>
  
  <!-- Content Bars Right -->
  <path d="M80 34H135C136.657 34 138 35.3431 138 37C138 38.6569 136.657 40 135 40H80V34Z" fill="#6B7280"/>
  <path d="M80 46H85C86.6569 46 88 47.3431 88 49C88 50.6569 86.6569 52 85 52H80V46Z" fill="#6B7280"/>
  <path d="M80 58H125C126.657 58 128 59.3431 128 61C128 62.6569 126.657 64 125 64H80V58Z" fill="#6B7280"/>

</svg>
